<mxfile host="Electron" agent="Mozilla/5.0 (Windows NT 10.0; Win64; x64) AppleWebKit/537.36 (KHTML, like Gecko) draw.io/26.1.1 Chrome/132.0.6834.210 Electron/34.3.3 Safari/537.36" version="26.1.1">
  <diagram name="Page-1" id="qOskLrSF-2t1shx5Kgf5">
    <mxGraphModel dx="1990" dy="1343" grid="1" gridSize="10" guides="1" tooltips="1" connect="1" arrows="1" fold="1" page="1" pageScale="1" pageWidth="850" pageHeight="1100" math="0" shadow="0">
      <root>
        <mxCell id="0" />
        <mxCell id="1" parent="0" />
        <mxCell id="NKZRD5gqwBJzmQy21ozP-1" value="&lt;font style=&quot;font-size: 21px;&quot;&gt;&lt;font style=&quot;&quot;&gt;&lt;b style=&quot;&quot;&gt;Integration Model&lt;/b&gt;&lt;/font&gt; (how tables are related)&lt;/font&gt;" style="text;html=1;align=center;verticalAlign=middle;whiteSpace=wrap;rounded=0;" parent="1" vertex="1">
          <mxGeometry x="10" y="10" width="590" height="50" as="geometry" />
        </mxCell>
        <mxCell id="NKZRD5gqwBJzmQy21ozP-2" value="crm_cust_info" style="swimlane;fontStyle=0;childLayout=stackLayout;horizontal=1;startSize=30;horizontalStack=0;resizeParent=1;resizeParentMax=0;resizeLast=0;collapsible=1;marginBottom=0;whiteSpace=wrap;html=1;rounded=1;fillColor=#dae8fc;strokeColor=#6c8ebf;gradientColor=none;fontSize=26;" parent="1" vertex="1">
          <mxGeometry x="470" y="220" width="200" height="90" as="geometry" />
        </mxCell>
        <mxCell id="NKZRD5gqwBJzmQy21ozP-3" value="cst_id" style="text;strokeColor=none;fillColor=none;align=left;verticalAlign=middle;spacingLeft=4;spacingRight=4;overflow=hidden;points=[[0,0.5],[1,0.5]];portConstraint=eastwest;rotatable=0;whiteSpace=wrap;html=1;fontSize=26;" parent="NKZRD5gqwBJzmQy21ozP-2" vertex="1">
          <mxGeometry y="30" width="200" height="30" as="geometry" />
        </mxCell>
        <mxCell id="NKZRD5gqwBJzmQy21ozP-27" value="cst_key" style="text;strokeColor=none;fillColor=none;align=left;verticalAlign=middle;spacingLeft=4;spacingRight=4;overflow=hidden;points=[[0,0.5],[1,0.5]];portConstraint=eastwest;rotatable=0;whiteSpace=wrap;html=1;fontSize=26;" parent="NKZRD5gqwBJzmQy21ozP-2" vertex="1">
          <mxGeometry y="60" width="200" height="30" as="geometry" />
        </mxCell>
        <mxCell id="NKZRD5gqwBJzmQy21ozP-6" value="&lt;font style=&quot;font-size: 15px;&quot;&gt;Customer Information&lt;/font&gt;" style="text;html=1;align=center;verticalAlign=middle;whiteSpace=wrap;rounded=0;" parent="1" vertex="1">
          <mxGeometry x="470" y="180" width="185" height="30" as="geometry" />
        </mxCell>
        <mxCell id="NKZRD5gqwBJzmQy21ozP-45" style="edgeStyle=orthogonalEdgeStyle;rounded=0;orthogonalLoop=1;jettySize=auto;html=1;" parent="1" source="NKZRD5gqwBJzmQy21ozP-9" target="NKZRD5gqwBJzmQy21ozP-35" edge="1">
          <mxGeometry relative="1" as="geometry">
            <Array as="points">
              <mxPoint x="700" y="430" />
              <mxPoint x="700" y="505" />
            </Array>
          </mxGeometry>
        </mxCell>
        <mxCell id="NKZRD5gqwBJzmQy21ozP-9" value="crm_prd_info" style="swimlane;fontStyle=0;childLayout=stackLayout;horizontal=1;startSize=30;horizontalStack=0;resizeParent=1;resizeParentMax=0;resizeLast=0;collapsible=1;marginBottom=0;whiteSpace=wrap;html=1;rounded=1;fillColor=#dae8fc;strokeColor=#6c8ebf;gradientColor=none;fontSize=26;" parent="1" vertex="1">
          <mxGeometry x="480" y="400" width="200" height="60" as="geometry" />
        </mxCell>
        <mxCell id="NKZRD5gqwBJzmQy21ozP-10" value="prd_key" style="text;strokeColor=none;fillColor=none;align=left;verticalAlign=middle;spacingLeft=4;spacingRight=4;overflow=hidden;points=[[0,0.5],[1,0.5]];portConstraint=eastwest;rotatable=0;whiteSpace=wrap;html=1;fontSize=26;" parent="NKZRD5gqwBJzmQy21ozP-9" vertex="1">
          <mxGeometry y="30" width="200" height="30" as="geometry" />
        </mxCell>
        <mxCell id="NKZRD5gqwBJzmQy21ozP-11" value="&lt;span style=&quot;font-size: 15px;&quot;&gt;Current and History Product Information&amp;nbsp;&amp;nbsp;&lt;/span&gt;" style="text;html=1;align=center;verticalAlign=middle;whiteSpace=wrap;rounded=0;" parent="1" vertex="1">
          <mxGeometry x="450" y="350" width="280" height="30" as="geometry" />
        </mxCell>
        <mxCell id="NKZRD5gqwBJzmQy21ozP-12" value="crm_sales_details" style="swimlane;fontStyle=0;childLayout=stackLayout;horizontal=1;startSize=30;horizontalStack=0;resizeParent=1;resizeParentMax=0;resizeLast=0;collapsible=1;marginBottom=0;whiteSpace=wrap;html=1;rounded=1;fillColor=#dae8fc;strokeColor=#6c8ebf;gradientColor=none;fontSize=26;" parent="1" vertex="1">
          <mxGeometry x="40" y="320" width="220" height="120" as="geometry" />
        </mxCell>
        <mxCell id="NKZRD5gqwBJzmQy21ozP-13" value="prd_key" style="text;strokeColor=none;fillColor=none;align=left;verticalAlign=middle;spacingLeft=4;spacingRight=4;overflow=hidden;points=[[0,0.5],[1,0.5]];portConstraint=eastwest;rotatable=0;whiteSpace=wrap;html=1;fontSize=26;" parent="NKZRD5gqwBJzmQy21ozP-12" vertex="1">
          <mxGeometry y="30" width="220" height="40" as="geometry" />
        </mxCell>
        <mxCell id="NKZRD5gqwBJzmQy21ozP-17" value="cst_id" style="text;strokeColor=none;fillColor=none;align=left;verticalAlign=middle;spacingLeft=4;spacingRight=4;overflow=hidden;points=[[0,0.5],[1,0.5]];portConstraint=eastwest;rotatable=0;whiteSpace=wrap;html=1;fontSize=26;" parent="NKZRD5gqwBJzmQy21ozP-12" vertex="1">
          <mxGeometry y="70" width="220" height="50" as="geometry" />
        </mxCell>
        <mxCell id="NKZRD5gqwBJzmQy21ozP-14" value="&lt;span style=&quot;font-size: 15px;&quot;&gt;Transactional Records about sales &amp;amp; Orders&lt;/span&gt;" style="text;html=1;align=center;verticalAlign=middle;whiteSpace=wrap;rounded=0;" parent="1" vertex="1">
          <mxGeometry x="10" y="280" width="310" height="30" as="geometry" />
        </mxCell>
        <mxCell id="NKZRD5gqwBJzmQy21ozP-18" style="edgeStyle=orthogonalEdgeStyle;rounded=0;orthogonalLoop=1;jettySize=auto;html=1;entryX=0;entryY=0.5;entryDx=0;entryDy=0;" parent="1" source="NKZRD5gqwBJzmQy21ozP-13" target="NKZRD5gqwBJzmQy21ozP-10" edge="1">
          <mxGeometry relative="1" as="geometry">
            <Array as="points">
              <mxPoint x="260" y="400" />
              <mxPoint x="360" y="400" />
              <mxPoint x="360" y="445" />
            </Array>
          </mxGeometry>
        </mxCell>
        <mxCell id="NKZRD5gqwBJzmQy21ozP-19" style="edgeStyle=orthogonalEdgeStyle;rounded=0;orthogonalLoop=1;jettySize=auto;html=1;entryX=0;entryY=0.5;entryDx=0;entryDy=0;" parent="1" source="NKZRD5gqwBJzmQy21ozP-13" target="NKZRD5gqwBJzmQy21ozP-3" edge="1">
          <mxGeometry relative="1" as="geometry">
            <Array as="points">
              <mxPoint x="355" y="370" />
              <mxPoint x="355" y="265" />
            </Array>
          </mxGeometry>
        </mxCell>
        <mxCell id="NKZRD5gqwBJzmQy21ozP-20" value="erp_cust_az12" style="swimlane;fontStyle=0;childLayout=stackLayout;horizontal=1;startSize=30;horizontalStack=0;resizeParent=1;resizeParentMax=0;resizeLast=0;collapsible=1;marginBottom=0;whiteSpace=wrap;html=1;rounded=1;fillColor=#fff2cc;strokeColor=#d6b656;fontSize=26;" parent="1" vertex="1">
          <mxGeometry x="960" y="224" width="200" height="60" as="geometry" />
        </mxCell>
        <mxCell id="NKZRD5gqwBJzmQy21ozP-21" value="cid" style="text;strokeColor=none;fillColor=none;align=left;verticalAlign=middle;spacingLeft=4;spacingRight=4;overflow=hidden;points=[[0,0.5],[1,0.5]];portConstraint=eastwest;rotatable=0;whiteSpace=wrap;html=1;fontSize=26;" parent="NKZRD5gqwBJzmQy21ozP-20" vertex="1">
          <mxGeometry y="30" width="200" height="30" as="geometry" />
        </mxCell>
        <mxCell id="NKZRD5gqwBJzmQy21ozP-22" value="&lt;span style=&quot;font-size: 15px;&quot;&gt;Extra Customer Information (Birtdate)&lt;/span&gt;" style="text;html=1;align=center;verticalAlign=middle;whiteSpace=wrap;rounded=0;" parent="1" vertex="1">
          <mxGeometry x="940" y="197" width="260" height="30" as="geometry" />
        </mxCell>
        <mxCell id="NKZRD5gqwBJzmQy21ozP-29" value="erp_loc_a101" style="swimlane;fontStyle=0;childLayout=stackLayout;horizontal=1;startSize=30;horizontalStack=0;resizeParent=1;resizeParentMax=0;resizeLast=0;collapsible=1;marginBottom=0;whiteSpace=wrap;html=1;rounded=1;fillColor=#fff2cc;strokeColor=#d6b656;fontSize=26;" parent="1" vertex="1">
          <mxGeometry x="970" y="350" width="200" height="60" as="geometry" />
        </mxCell>
        <mxCell id="NKZRD5gqwBJzmQy21ozP-30" value="cid" style="text;strokeColor=none;fillColor=none;align=left;verticalAlign=middle;spacingLeft=4;spacingRight=4;overflow=hidden;points=[[0,0.5],[1,0.5]];portConstraint=eastwest;rotatable=0;whiteSpace=wrap;html=1;fontSize=26;" parent="NKZRD5gqwBJzmQy21ozP-29" vertex="1">
          <mxGeometry y="30" width="200" height="30" as="geometry" />
        </mxCell>
        <mxCell id="NKZRD5gqwBJzmQy21ozP-31" value="&lt;span style=&quot;font-size: 15px;&quot;&gt;Location of Customers (Country)&lt;/span&gt;" style="text;html=1;align=center;verticalAlign=middle;whiteSpace=wrap;rounded=0;" parent="1" vertex="1">
          <mxGeometry x="960" y="317.5" width="230" height="30" as="geometry" />
        </mxCell>
        <mxCell id="NKZRD5gqwBJzmQy21ozP-32" style="edgeStyle=orthogonalEdgeStyle;rounded=0;orthogonalLoop=1;jettySize=auto;html=1;entryX=0;entryY=0.5;entryDx=0;entryDy=0;" parent="1" edge="1">
          <mxGeometry relative="1" as="geometry">
            <mxPoint x="670" y="289" as="sourcePoint" />
            <mxPoint x="960" y="254" as="targetPoint" />
            <Array as="points">
              <mxPoint x="815" y="289" />
              <mxPoint x="815" y="254" />
            </Array>
          </mxGeometry>
        </mxCell>
        <mxCell id="NKZRD5gqwBJzmQy21ozP-33" style="edgeStyle=orthogonalEdgeStyle;rounded=0;orthogonalLoop=1;jettySize=auto;html=1;exitX=1;exitY=0.5;exitDx=0;exitDy=0;" parent="1" edge="1">
          <mxGeometry relative="1" as="geometry">
            <mxPoint x="670" y="274" as="sourcePoint" />
            <mxPoint x="970" y="384.0000000000002" as="targetPoint" />
            <Array as="points">
              <mxPoint x="670" y="289" />
              <mxPoint x="820" y="289" />
              <mxPoint x="820" y="384" />
            </Array>
          </mxGeometry>
        </mxCell>
        <mxCell id="NKZRD5gqwBJzmQy21ozP-34" value="erp_px_cat_g1v2" style="swimlane;fontStyle=0;childLayout=stackLayout;horizontal=1;startSize=30;horizontalStack=0;resizeParent=1;resizeParentMax=0;resizeLast=0;collapsible=1;marginBottom=0;whiteSpace=wrap;html=1;rounded=1;fillColor=#fff2cc;strokeColor=#d6b656;fontSize=26;" parent="1" vertex="1">
          <mxGeometry x="970" y="460" width="200" height="60" as="geometry" />
        </mxCell>
        <mxCell id="NKZRD5gqwBJzmQy21ozP-35" value="id" style="text;strokeColor=none;fillColor=none;align=left;verticalAlign=middle;spacingLeft=4;spacingRight=4;overflow=hidden;points=[[0,0.5],[1,0.5]];portConstraint=eastwest;rotatable=0;whiteSpace=wrap;html=1;fontSize=26;" parent="NKZRD5gqwBJzmQy21ozP-34" vertex="1">
          <mxGeometry y="30" width="200" height="30" as="geometry" />
        </mxCell>
        <mxCell id="NKZRD5gqwBJzmQy21ozP-36" value="&lt;font style=&quot;font-size: 15px;&quot;&gt;Product Information&lt;/font&gt;" style="text;html=1;align=center;verticalAlign=middle;whiteSpace=wrap;rounded=0;" parent="1" vertex="1">
          <mxGeometry x="977.5" y="430" width="185" height="30" as="geometry" />
        </mxCell>
        <mxCell id="NKZRD5gqwBJzmQy21ozP-37" value="z" style="rounded=1;whiteSpace=wrap;html=1;fillColor=none;dashed=1;" parent="1" vertex="1">
          <mxGeometry x="-10" y="122.5" width="735" height="435" as="geometry" />
        </mxCell>
        <mxCell id="NKZRD5gqwBJzmQy21ozP-38" value="&lt;font style=&quot;font-size: 28px;&quot;&gt;&lt;b style=&quot;&quot;&gt;CRM&lt;/b&gt;&lt;/font&gt;" style="rounded=1;whiteSpace=wrap;html=1;fillColor=#dae8fc;strokeColor=#6c8ebf;" parent="1" vertex="1">
          <mxGeometry x="245" y="90" width="180" height="60" as="geometry" />
        </mxCell>
        <mxCell id="NKZRD5gqwBJzmQy21ozP-40" value="" style="rounded=1;whiteSpace=wrap;html=1;fillColor=none;dashed=1;" parent="1" vertex="1">
          <mxGeometry x="765" y="120" width="590" height="440" as="geometry" />
        </mxCell>
        <mxCell id="NKZRD5gqwBJzmQy21ozP-47" value="&lt;span style=&quot;font-size: 28px;&quot;&gt;&lt;b&gt;ERP&lt;/b&gt;&lt;/span&gt;" style="rounded=1;whiteSpace=wrap;html=1;fillColor=#fff2cc;strokeColor=#d6b656;" parent="1" vertex="1">
          <mxGeometry x="950" y="90" width="180" height="60" as="geometry" />
        </mxCell>
        <mxCell id="vlnsDhlg5-PtAGpGtEg3-3" value="&lt;span style=&quot;font-size: 20px;&quot;&gt;PRODUCT&lt;/span&gt;" style="text;html=1;align=center;verticalAlign=middle;whiteSpace=wrap;rounded=0;fillColor=#f8cecc;strokeColor=#b85450;" vertex="1" parent="1">
          <mxGeometry x="481.88" y="460" width="198.12" height="20" as="geometry" />
        </mxCell>
        <mxCell id="vlnsDhlg5-PtAGpGtEg3-4" value="&lt;span style=&quot;font-size: 20px;&quot;&gt;PRODUCT&lt;/span&gt;" style="text;html=1;align=center;verticalAlign=middle;whiteSpace=wrap;rounded=0;fillColor=#f8cecc;strokeColor=#b85450;" vertex="1" parent="1">
          <mxGeometry x="971.88" y="520" width="198.12" height="20" as="geometry" />
        </mxCell>
        <mxCell id="vlnsDhlg5-PtAGpGtEg3-5" value="&lt;span style=&quot;font-size: 20px;&quot;&gt;CUSTOMER&lt;/span&gt;" style="text;html=1;align=center;verticalAlign=middle;whiteSpace=wrap;rounded=0;fillColor=#d5e8d4;strokeColor=#82b366;" vertex="1" parent="1">
          <mxGeometry x="470" y="310" width="198.12" height="20" as="geometry" />
        </mxCell>
        <mxCell id="vlnsDhlg5-PtAGpGtEg3-6" value="&lt;span style=&quot;font-size: 20px;&quot;&gt;CUSTOMER&lt;/span&gt;" style="text;html=1;align=center;verticalAlign=middle;whiteSpace=wrap;rounded=0;fillColor=#d5e8d4;strokeColor=#82b366;" vertex="1" parent="1">
          <mxGeometry x="960" y="284" width="198.12" height="20" as="geometry" />
        </mxCell>
        <mxCell id="vlnsDhlg5-PtAGpGtEg3-7" value="&lt;span style=&quot;font-size: 20px;&quot;&gt;CUSTOMER&lt;/span&gt;" style="text;html=1;align=center;verticalAlign=middle;whiteSpace=wrap;rounded=0;fillColor=#d5e8d4;strokeColor=#82b366;" vertex="1" parent="1">
          <mxGeometry x="975.94" y="410" width="198.12" height="20" as="geometry" />
        </mxCell>
        <mxCell id="vlnsDhlg5-PtAGpGtEg3-8" value="&lt;span style=&quot;font-size: 20px;&quot;&gt;SALES&lt;/span&gt;" style="text;html=1;align=center;verticalAlign=middle;whiteSpace=wrap;rounded=0;fillColor=#e1d5e7;strokeColor=#9673a6;" vertex="1" parent="1">
          <mxGeometry x="41.879999999999995" y="440" width="198.12" height="20" as="geometry" />
        </mxCell>
      </root>
    </mxGraphModel>
  </diagram>
</mxfile>
